<mxfile host="app.diagrams.net" modified="2022-09-23T11:36:57.110Z" agent="5.0 (Windows NT 10.0; Win64; x64) AppleWebKit/537.36 (KHTML, like Gecko) Chrome/105.0.0.0 Safari/537.36" etag="7NHeCwKF7tbJjedIROyf" version="20.3.6" type="github">
  <diagram id="jhYyFidxgC8DxNPJMKFX" name="Page-1">
    <mxGraphModel dx="1144" dy="692" grid="1" gridSize="10" guides="1" tooltips="1" connect="1" arrows="1" fold="1" page="1" pageScale="1" pageWidth="850" pageHeight="1100" math="1" shadow="0">
      <root>
        <mxCell id="0" />
        <mxCell id="1" parent="0" />
        <mxCell id="SVV8ROkvWkPMd5T7xQUD-7" value="$$ap$$" style="text;html=1;strokeColor=none;fillColor=none;align=center;verticalAlign=middle;whiteSpace=wrap;rounded=0;fontSize=20;" vertex="1" parent="1">
          <mxGeometry x="280" y="120" width="80" height="40" as="geometry" />
        </mxCell>
        <mxCell id="SVV8ROkvWkPMd5T7xQUD-16" style="edgeStyle=none;rounded=0;orthogonalLoop=1;jettySize=auto;html=1;entryX=0.25;entryY=1;entryDx=0;entryDy=0;strokeColor=default;fontSize=20;endArrow=none;endFill=0;exitX=0.5;exitY=0;exitDx=0;exitDy=0;" edge="1" parent="1" source="SVV8ROkvWkPMd5T7xQUD-8" target="SVV8ROkvWkPMd5T7xQUD-10">
          <mxGeometry relative="1" as="geometry" />
        </mxCell>
        <mxCell id="SVV8ROkvWkPMd5T7xQUD-18" style="edgeStyle=none;rounded=0;orthogonalLoop=1;jettySize=auto;html=1;exitX=0.5;exitY=1;exitDx=0;exitDy=0;entryX=0.5;entryY=0;entryDx=0;entryDy=0;strokeColor=default;fontSize=20;endArrow=none;endFill=0;" edge="1" parent="1" source="SVV8ROkvWkPMd5T7xQUD-8" target="SVV8ROkvWkPMd5T7xQUD-14">
          <mxGeometry relative="1" as="geometry" />
        </mxCell>
        <mxCell id="SVV8ROkvWkPMd5T7xQUD-8" value="$$\lambda t$$" style="text;html=1;strokeColor=none;fillColor=none;align=center;verticalAlign=middle;whiteSpace=wrap;rounded=0;fontSize=20;" vertex="1" parent="1">
          <mxGeometry x="140" y="280" width="40" height="40" as="geometry" />
        </mxCell>
        <mxCell id="SVV8ROkvWkPMd5T7xQUD-11" style="rounded=0;orthogonalLoop=1;jettySize=auto;html=1;fontSize=20;verticalAlign=middle;strokeColor=default;endArrow=none;endFill=0;exitX=0.5;exitY=0;exitDx=0;exitDy=0;entryX=0.75;entryY=1;entryDx=0;entryDy=0;" edge="1" parent="1" source="SVV8ROkvWkPMd5T7xQUD-9" target="SVV8ROkvWkPMd5T7xQUD-7">
          <mxGeometry relative="1" as="geometry" />
        </mxCell>
        <mxCell id="SVV8ROkvWkPMd5T7xQUD-9" value="$$y$$" style="text;html=1;strokeColor=none;fillColor=none;align=center;verticalAlign=middle;whiteSpace=wrap;rounded=0;fontSize=20;" vertex="1" parent="1">
          <mxGeometry x="360" y="200" width="80" height="40" as="geometry" />
        </mxCell>
        <mxCell id="SVV8ROkvWkPMd5T7xQUD-12" style="edgeStyle=none;rounded=0;orthogonalLoop=1;jettySize=auto;html=1;strokeColor=default;fontSize=20;endArrow=none;endFill=0;exitX=0.5;exitY=0;exitDx=0;exitDy=0;entryX=0.25;entryY=1;entryDx=0;entryDy=0;strokeWidth=1;" edge="1" parent="1" source="SVV8ROkvWkPMd5T7xQUD-10" target="SVV8ROkvWkPMd5T7xQUD-7">
          <mxGeometry relative="1" as="geometry" />
        </mxCell>
        <mxCell id="SVV8ROkvWkPMd5T7xQUD-10" value="$$ap$$" style="text;html=1;strokeColor=none;fillColor=none;align=center;verticalAlign=middle;whiteSpace=wrap;rounded=0;fontSize=20;" vertex="1" parent="1">
          <mxGeometry x="200" y="200" width="80" height="40" as="geometry" />
        </mxCell>
        <mxCell id="SVV8ROkvWkPMd5T7xQUD-17" style="edgeStyle=none;rounded=0;orthogonalLoop=1;jettySize=auto;html=1;entryX=0.75;entryY=1;entryDx=0;entryDy=0;strokeColor=default;fontSize=20;endArrow=none;endFill=0;exitX=0.5;exitY=0;exitDx=0;exitDy=0;" edge="1" parent="1" source="SVV8ROkvWkPMd5T7xQUD-13" target="SVV8ROkvWkPMd5T7xQUD-10">
          <mxGeometry relative="1" as="geometry" />
        </mxCell>
        <mxCell id="SVV8ROkvWkPMd5T7xQUD-13" value="$$x$$" style="text;html=1;strokeColor=none;fillColor=none;align=center;verticalAlign=middle;whiteSpace=wrap;rounded=0;fontSize=20;" vertex="1" parent="1">
          <mxGeometry x="280" y="280" width="80" height="40" as="geometry" />
        </mxCell>
        <mxCell id="SVV8ROkvWkPMd5T7xQUD-19" style="edgeStyle=none;rounded=0;orthogonalLoop=1;jettySize=auto;html=1;exitX=0.5;exitY=1;exitDx=0;exitDy=0;entryX=0.5;entryY=0;entryDx=0;entryDy=0;strokeColor=default;fontSize=20;endArrow=none;endFill=0;" edge="1" parent="1" source="SVV8ROkvWkPMd5T7xQUD-14" target="SVV8ROkvWkPMd5T7xQUD-15">
          <mxGeometry relative="1" as="geometry" />
        </mxCell>
        <mxCell id="SVV8ROkvWkPMd5T7xQUD-14" value="$$\lambda f$$" style="text;html=1;strokeColor=none;fillColor=none;align=center;verticalAlign=middle;whiteSpace=wrap;rounded=0;fontSize=20;" vertex="1" parent="1">
          <mxGeometry x="120" y="360" width="80" height="40" as="geometry" />
        </mxCell>
        <mxCell id="SVV8ROkvWkPMd5T7xQUD-20" style="edgeStyle=orthogonalEdgeStyle;rounded=0;orthogonalLoop=1;jettySize=auto;html=1;exitX=0;exitY=0.5;exitDx=0;exitDy=0;entryX=0;entryY=0.5;entryDx=0;entryDy=0;strokeColor=default;strokeWidth=1;fontSize=20;endArrow=classic;endFill=1;curved=1;startArrow=none;startFill=0;dashed=1;" edge="1" parent="1" source="SVV8ROkvWkPMd5T7xQUD-15" target="SVV8ROkvWkPMd5T7xQUD-8">
          <mxGeometry relative="1" as="geometry">
            <Array as="points">
              <mxPoint x="90" y="460" />
              <mxPoint x="90" y="300" />
            </Array>
          </mxGeometry>
        </mxCell>
        <mxCell id="SVV8ROkvWkPMd5T7xQUD-15" value="$$t$$" style="text;html=1;strokeColor=none;fillColor=none;align=center;verticalAlign=middle;whiteSpace=wrap;rounded=0;fontSize=20;" vertex="1" parent="1">
          <mxGeometry x="140" y="440" width="40" height="40" as="geometry" />
        </mxCell>
        <mxCell id="SVV8ROkvWkPMd5T7xQUD-22" value="$$ap$$" style="text;html=1;strokeColor=none;fillColor=none;align=center;verticalAlign=middle;whiteSpace=wrap;rounded=0;fontSize=20;" vertex="1" parent="1">
          <mxGeometry x="440" y="560" width="80" height="40" as="geometry" />
        </mxCell>
        <mxCell id="SVV8ROkvWkPMd5T7xQUD-23" style="edgeStyle=none;rounded=0;orthogonalLoop=1;jettySize=auto;html=1;entryX=0.25;entryY=1;entryDx=0;entryDy=0;strokeColor=default;fontSize=20;endArrow=none;endFill=0;exitX=0.5;exitY=0;exitDx=0;exitDy=0;" edge="1" parent="1" source="SVV8ROkvWkPMd5T7xQUD-25" target="SVV8ROkvWkPMd5T7xQUD-29">
          <mxGeometry relative="1" as="geometry" />
        </mxCell>
        <mxCell id="SVV8ROkvWkPMd5T7xQUD-24" style="edgeStyle=none;rounded=0;orthogonalLoop=1;jettySize=auto;html=1;exitX=0.5;exitY=1;exitDx=0;exitDy=0;entryX=0.5;entryY=0;entryDx=0;entryDy=0;strokeColor=default;fontSize=20;endArrow=none;endFill=0;" edge="1" parent="1" source="SVV8ROkvWkPMd5T7xQUD-25" target="SVV8ROkvWkPMd5T7xQUD-33">
          <mxGeometry relative="1" as="geometry" />
        </mxCell>
        <mxCell id="SVV8ROkvWkPMd5T7xQUD-25" value="$$\lambda x$$" style="text;html=1;strokeColor=none;fillColor=none;align=center;verticalAlign=middle;whiteSpace=wrap;rounded=0;fontSize=20;" vertex="1" parent="1">
          <mxGeometry x="260" y="720" width="40" height="40" as="geometry" />
        </mxCell>
        <mxCell id="SVV8ROkvWkPMd5T7xQUD-26" style="rounded=0;orthogonalLoop=1;jettySize=auto;html=1;fontSize=20;verticalAlign=middle;strokeColor=default;endArrow=none;endFill=0;exitX=0.5;exitY=0;exitDx=0;exitDy=0;entryX=0.75;entryY=1;entryDx=0;entryDy=0;" edge="1" parent="1" source="SVV8ROkvWkPMd5T7xQUD-27" target="SVV8ROkvWkPMd5T7xQUD-22">
          <mxGeometry relative="1" as="geometry" />
        </mxCell>
        <mxCell id="SVV8ROkvWkPMd5T7xQUD-53" style="edgeStyle=none;shape=connector;rounded=0;orthogonalLoop=1;jettySize=auto;html=1;exitX=0.5;exitY=1;exitDx=0;exitDy=0;entryX=0.5;entryY=0;entryDx=0;entryDy=0;labelBackgroundColor=default;strokeColor=default;strokeWidth=1;fontFamily=Helvetica;fontSize=20;fontColor=default;startArrow=none;startFill=0;endArrow=none;endFill=0;" edge="1" parent="1" source="SVV8ROkvWkPMd5T7xQUD-27" target="SVV8ROkvWkPMd5T7xQUD-48">
          <mxGeometry relative="1" as="geometry" />
        </mxCell>
        <mxCell id="SVV8ROkvWkPMd5T7xQUD-27" value="$$\lambda &lt;br&gt;y$$" style="text;html=1;strokeColor=none;fillColor=none;align=center;verticalAlign=middle;whiteSpace=wrap;rounded=0;fontSize=20;" vertex="1" parent="1">
          <mxGeometry x="580" y="640" width="40" height="40" as="geometry" />
        </mxCell>
        <mxCell id="SVV8ROkvWkPMd5T7xQUD-28" style="edgeStyle=none;rounded=0;orthogonalLoop=1;jettySize=auto;html=1;strokeColor=default;fontSize=20;endArrow=none;endFill=0;exitX=0.5;exitY=0;exitDx=0;exitDy=0;entryX=0.25;entryY=1;entryDx=0;entryDy=0;strokeWidth=1;" edge="1" parent="1" source="SVV8ROkvWkPMd5T7xQUD-29" target="SVV8ROkvWkPMd5T7xQUD-22">
          <mxGeometry relative="1" as="geometry" />
        </mxCell>
        <mxCell id="SVV8ROkvWkPMd5T7xQUD-29" value="$$ap$$" style="text;html=1;strokeColor=none;fillColor=none;align=center;verticalAlign=middle;whiteSpace=wrap;rounded=0;fontSize=20;" vertex="1" parent="1">
          <mxGeometry x="320" y="640" width="80" height="40" as="geometry" />
        </mxCell>
        <mxCell id="SVV8ROkvWkPMd5T7xQUD-30" style="edgeStyle=none;rounded=0;orthogonalLoop=1;jettySize=auto;html=1;entryX=0.75;entryY=1;entryDx=0;entryDy=0;strokeColor=default;fontSize=20;endArrow=none;endFill=0;exitX=0.5;exitY=0;exitDx=0;exitDy=0;" edge="1" parent="1" source="SVV8ROkvWkPMd5T7xQUD-31" target="SVV8ROkvWkPMd5T7xQUD-29">
          <mxGeometry relative="1" as="geometry" />
        </mxCell>
        <mxCell id="SVV8ROkvWkPMd5T7xQUD-47" style="edgeStyle=none;shape=connector;rounded=0;orthogonalLoop=1;jettySize=auto;html=1;exitX=0.5;exitY=1;exitDx=0;exitDy=0;entryX=0.5;entryY=0;entryDx=0;entryDy=0;labelBackgroundColor=default;strokeColor=default;strokeWidth=1;fontFamily=Helvetica;fontSize=20;fontColor=default;startArrow=none;startFill=0;endArrow=none;endFill=0;" edge="1" parent="1" source="SVV8ROkvWkPMd5T7xQUD-31" target="SVV8ROkvWkPMd5T7xQUD-46">
          <mxGeometry relative="1" as="geometry" />
        </mxCell>
        <mxCell id="SVV8ROkvWkPMd5T7xQUD-31" value="$$\lambda x$$" style="text;html=1;strokeColor=none;fillColor=none;align=center;verticalAlign=middle;whiteSpace=wrap;rounded=0;fontSize=20;" vertex="1" parent="1">
          <mxGeometry x="420" y="720" width="40" height="40" as="geometry" />
        </mxCell>
        <mxCell id="SVV8ROkvWkPMd5T7xQUD-32" style="edgeStyle=none;rounded=0;orthogonalLoop=1;jettySize=auto;html=1;exitX=0.5;exitY=1;exitDx=0;exitDy=0;entryX=0.5;entryY=0;entryDx=0;entryDy=0;strokeColor=default;fontSize=20;endArrow=none;endFill=0;" edge="1" parent="1" source="SVV8ROkvWkPMd5T7xQUD-33" target="SVV8ROkvWkPMd5T7xQUD-35">
          <mxGeometry relative="1" as="geometry" />
        </mxCell>
        <mxCell id="SVV8ROkvWkPMd5T7xQUD-33" value="$$\lambda y$$" style="text;html=1;strokeColor=none;fillColor=none;align=center;verticalAlign=middle;whiteSpace=wrap;rounded=0;fontSize=20;" vertex="1" parent="1">
          <mxGeometry x="260" y="800" width="40" height="40" as="geometry" />
        </mxCell>
        <mxCell id="SVV8ROkvWkPMd5T7xQUD-39" style="edgeStyle=orthogonalEdgeStyle;curved=1;rounded=0;orthogonalLoop=1;jettySize=auto;html=1;exitX=0.5;exitY=1;exitDx=0;exitDy=0;entryX=0.5;entryY=0;entryDx=0;entryDy=0;strokeColor=default;strokeWidth=1;fontSize=20;startArrow=none;startFill=0;endArrow=none;endFill=0;" edge="1" parent="1" source="SVV8ROkvWkPMd5T7xQUD-35" target="SVV8ROkvWkPMd5T7xQUD-36">
          <mxGeometry relative="1" as="geometry" />
        </mxCell>
        <mxCell id="SVV8ROkvWkPMd5T7xQUD-35" value="$$\lambda z$$" style="text;html=1;strokeColor=none;fillColor=none;align=center;verticalAlign=middle;whiteSpace=wrap;rounded=0;fontSize=20;" vertex="1" parent="1">
          <mxGeometry x="260" y="880" width="40" height="40" as="geometry" />
        </mxCell>
        <mxCell id="SVV8ROkvWkPMd5T7xQUD-40" style="shape=connector;rounded=0;orthogonalLoop=1;jettySize=auto;html=1;exitX=0;exitY=1;exitDx=0;exitDy=0;entryX=0.5;entryY=0;entryDx=0;entryDy=0;labelBackgroundColor=default;strokeColor=default;strokeWidth=1;fontFamily=Helvetica;fontSize=20;fontColor=default;startArrow=none;startFill=0;endArrow=none;endFill=0;" edge="1" parent="1" source="SVV8ROkvWkPMd5T7xQUD-36" target="SVV8ROkvWkPMd5T7xQUD-37">
          <mxGeometry relative="1" as="geometry" />
        </mxCell>
        <mxCell id="SVV8ROkvWkPMd5T7xQUD-45" style="edgeStyle=none;shape=connector;rounded=0;orthogonalLoop=1;jettySize=auto;html=1;exitX=1;exitY=1;exitDx=0;exitDy=0;entryX=0.5;entryY=0;entryDx=0;entryDy=0;labelBackgroundColor=default;strokeColor=default;strokeWidth=1;fontFamily=Helvetica;fontSize=20;fontColor=default;startArrow=none;startFill=0;endArrow=none;endFill=0;" edge="1" parent="1" source="SVV8ROkvWkPMd5T7xQUD-36" target="SVV8ROkvWkPMd5T7xQUD-44">
          <mxGeometry relative="1" as="geometry" />
        </mxCell>
        <mxCell id="SVV8ROkvWkPMd5T7xQUD-36" value="$$ap$$" style="text;html=1;strokeColor=none;fillColor=none;align=center;verticalAlign=middle;whiteSpace=wrap;rounded=0;fontSize=20;" vertex="1" parent="1">
          <mxGeometry x="260" y="960" width="40" height="40" as="geometry" />
        </mxCell>
        <mxCell id="SVV8ROkvWkPMd5T7xQUD-41" style="edgeStyle=none;shape=connector;rounded=0;orthogonalLoop=1;jettySize=auto;html=1;exitX=0;exitY=1;exitDx=0;exitDy=0;entryX=0.5;entryY=0;entryDx=0;entryDy=0;labelBackgroundColor=default;strokeColor=default;strokeWidth=1;fontFamily=Helvetica;fontSize=20;fontColor=default;startArrow=none;startFill=0;endArrow=none;endFill=0;" edge="1" parent="1" source="SVV8ROkvWkPMd5T7xQUD-37" target="SVV8ROkvWkPMd5T7xQUD-38">
          <mxGeometry relative="1" as="geometry" />
        </mxCell>
        <mxCell id="SVV8ROkvWkPMd5T7xQUD-43" style="edgeStyle=none;shape=connector;rounded=0;orthogonalLoop=1;jettySize=auto;html=1;exitX=1;exitY=1;exitDx=0;exitDy=0;entryX=0.5;entryY=0;entryDx=0;entryDy=0;labelBackgroundColor=default;strokeColor=default;strokeWidth=1;fontFamily=Helvetica;fontSize=20;fontColor=default;startArrow=none;startFill=0;endArrow=none;endFill=0;" edge="1" parent="1" source="SVV8ROkvWkPMd5T7xQUD-37" target="SVV8ROkvWkPMd5T7xQUD-42">
          <mxGeometry relative="1" as="geometry" />
        </mxCell>
        <mxCell id="SVV8ROkvWkPMd5T7xQUD-37" value="$$ap$$" style="text;html=1;strokeColor=none;fillColor=none;align=center;verticalAlign=middle;whiteSpace=wrap;rounded=0;fontSize=20;" vertex="1" parent="1">
          <mxGeometry x="180" y="1040" width="40" height="40" as="geometry" />
        </mxCell>
        <mxCell id="SVV8ROkvWkPMd5T7xQUD-61" style="edgeStyle=orthogonalEdgeStyle;shape=connector;curved=1;rounded=0;orthogonalLoop=1;jettySize=auto;html=1;exitX=0;exitY=0.5;exitDx=0;exitDy=0;entryX=0;entryY=0.5;entryDx=0;entryDy=0;dashed=1;labelBackgroundColor=default;strokeColor=default;strokeWidth=1;fontFamily=Helvetica;fontSize=20;fontColor=default;startArrow=none;startFill=0;endArrow=classic;endFill=1;" edge="1" parent="1" source="SVV8ROkvWkPMd5T7xQUD-38" target="SVV8ROkvWkPMd5T7xQUD-25">
          <mxGeometry relative="1" as="geometry">
            <Array as="points">
              <mxPoint x="70" y="1140" />
              <mxPoint x="70" y="740" />
            </Array>
          </mxGeometry>
        </mxCell>
        <mxCell id="SVV8ROkvWkPMd5T7xQUD-38" value="$$x$$" style="text;html=1;strokeColor=none;fillColor=none;align=center;verticalAlign=middle;whiteSpace=wrap;rounded=0;fontSize=20;" vertex="1" parent="1">
          <mxGeometry x="100" y="1120" width="40" height="40" as="geometry" />
        </mxCell>
        <mxCell id="SVV8ROkvWkPMd5T7xQUD-60" style="edgeStyle=orthogonalEdgeStyle;shape=connector;curved=1;rounded=0;orthogonalLoop=1;jettySize=auto;html=1;exitX=1;exitY=0.5;exitDx=0;exitDy=0;entryX=1;entryY=0.5;entryDx=0;entryDy=0;dashed=1;labelBackgroundColor=default;strokeColor=default;strokeWidth=1;fontFamily=Helvetica;fontSize=20;fontColor=default;startArrow=none;startFill=0;endArrow=classic;endFill=1;" edge="1" parent="1" source="SVV8ROkvWkPMd5T7xQUD-42" target="SVV8ROkvWkPMd5T7xQUD-33">
          <mxGeometry relative="1" as="geometry">
            <Array as="points">
              <mxPoint x="450" y="1140" />
              <mxPoint x="450" y="820" />
            </Array>
          </mxGeometry>
        </mxCell>
        <mxCell id="SVV8ROkvWkPMd5T7xQUD-42" value="$$y$$" style="text;html=1;strokeColor=none;fillColor=none;align=center;verticalAlign=middle;whiteSpace=wrap;rounded=0;fontSize=20;" vertex="1" parent="1">
          <mxGeometry x="260" y="1120" width="40" height="40" as="geometry" />
        </mxCell>
        <mxCell id="SVV8ROkvWkPMd5T7xQUD-59" style="edgeStyle=orthogonalEdgeStyle;shape=connector;curved=1;rounded=0;orthogonalLoop=1;jettySize=auto;html=1;exitX=1;exitY=0.5;exitDx=0;exitDy=0;entryX=1;entryY=0.5;entryDx=0;entryDy=0;dashed=1;labelBackgroundColor=default;strokeColor=default;strokeWidth=1;fontFamily=Helvetica;fontSize=20;fontColor=default;startArrow=none;startFill=0;endArrow=classic;endFill=1;" edge="1" parent="1" source="SVV8ROkvWkPMd5T7xQUD-44" target="SVV8ROkvWkPMd5T7xQUD-35">
          <mxGeometry relative="1" as="geometry" />
        </mxCell>
        <mxCell id="SVV8ROkvWkPMd5T7xQUD-44" value="$$z$$" style="text;html=1;strokeColor=none;fillColor=none;align=center;verticalAlign=middle;whiteSpace=wrap;rounded=0;fontSize=20;" vertex="1" parent="1">
          <mxGeometry x="340" y="1040" width="40" height="40" as="geometry" />
        </mxCell>
        <mxCell id="SVV8ROkvWkPMd5T7xQUD-58" style="edgeStyle=orthogonalEdgeStyle;shape=connector;curved=1;rounded=0;orthogonalLoop=1;jettySize=auto;html=1;exitX=0;exitY=0.5;exitDx=0;exitDy=0;entryX=0;entryY=0.5;entryDx=0;entryDy=0;dashed=1;labelBackgroundColor=default;strokeColor=default;strokeWidth=1;fontFamily=Helvetica;fontSize=20;fontColor=default;startArrow=none;startFill=0;endArrow=classic;endFill=1;" edge="1" parent="1" source="SVV8ROkvWkPMd5T7xQUD-46" target="SVV8ROkvWkPMd5T7xQUD-31">
          <mxGeometry relative="1" as="geometry">
            <Array as="points">
              <mxPoint x="390" y="820" />
              <mxPoint x="390" y="740" />
            </Array>
          </mxGeometry>
        </mxCell>
        <mxCell id="SVV8ROkvWkPMd5T7xQUD-46" value="$$x$$" style="text;html=1;strokeColor=none;fillColor=none;align=center;verticalAlign=middle;whiteSpace=wrap;rounded=0;fontSize=20;" vertex="1" parent="1">
          <mxGeometry x="420" y="800" width="40" height="40" as="geometry" />
        </mxCell>
        <mxCell id="SVV8ROkvWkPMd5T7xQUD-52" style="edgeStyle=none;shape=connector;rounded=0;orthogonalLoop=1;jettySize=auto;html=1;exitX=0;exitY=1;exitDx=0;exitDy=0;entryX=0.5;entryY=0;entryDx=0;entryDy=0;labelBackgroundColor=default;strokeColor=default;strokeWidth=1;fontFamily=Helvetica;fontSize=20;fontColor=default;startArrow=none;startFill=0;endArrow=none;endFill=0;" edge="1" parent="1" source="SVV8ROkvWkPMd5T7xQUD-48" target="SVV8ROkvWkPMd5T7xQUD-49">
          <mxGeometry relative="1" as="geometry" />
        </mxCell>
        <mxCell id="SVV8ROkvWkPMd5T7xQUD-54" style="edgeStyle=none;shape=connector;rounded=0;orthogonalLoop=1;jettySize=auto;html=1;exitX=1;exitY=1;exitDx=0;exitDy=0;entryX=0.5;entryY=0;entryDx=0;entryDy=0;labelBackgroundColor=default;strokeColor=default;strokeWidth=1;fontFamily=Helvetica;fontSize=20;fontColor=default;startArrow=none;startFill=0;endArrow=none;endFill=0;" edge="1" parent="1" source="SVV8ROkvWkPMd5T7xQUD-48" target="SVV8ROkvWkPMd5T7xQUD-50">
          <mxGeometry relative="1" as="geometry" />
        </mxCell>
        <mxCell id="SVV8ROkvWkPMd5T7xQUD-48" value="$$ap$$" style="text;html=1;strokeColor=none;fillColor=none;align=center;verticalAlign=middle;whiteSpace=wrap;rounded=0;fontSize=20;" vertex="1" parent="1">
          <mxGeometry x="580" y="720" width="40" height="40" as="geometry" />
        </mxCell>
        <mxCell id="SVV8ROkvWkPMd5T7xQUD-57" style="edgeStyle=orthogonalEdgeStyle;shape=connector;curved=1;rounded=0;orthogonalLoop=1;jettySize=auto;html=1;exitX=0;exitY=0.5;exitDx=0;exitDy=0;entryX=0;entryY=0.5;entryDx=0;entryDy=0;dashed=1;labelBackgroundColor=default;strokeColor=default;strokeWidth=1;fontFamily=Helvetica;fontSize=20;fontColor=default;startArrow=none;startFill=0;endArrow=classic;endFill=1;" edge="1" parent="1" source="SVV8ROkvWkPMd5T7xQUD-49" target="SVV8ROkvWkPMd5T7xQUD-27">
          <mxGeometry relative="1" as="geometry">
            <Array as="points">
              <mxPoint x="480" y="820" />
              <mxPoint x="480" y="660" />
            </Array>
          </mxGeometry>
        </mxCell>
        <mxCell id="SVV8ROkvWkPMd5T7xQUD-49" value="$$y$$" style="text;html=1;strokeColor=none;fillColor=none;align=center;verticalAlign=middle;whiteSpace=wrap;rounded=0;fontSize=20;" vertex="1" parent="1">
          <mxGeometry x="500" y="800" width="40" height="40" as="geometry" />
        </mxCell>
        <mxCell id="SVV8ROkvWkPMd5T7xQUD-55" style="edgeStyle=none;shape=connector;rounded=0;orthogonalLoop=1;jettySize=auto;html=1;exitX=0.5;exitY=1;exitDx=0;exitDy=0;entryX=0.5;entryY=0;entryDx=0;entryDy=0;labelBackgroundColor=default;strokeColor=default;strokeWidth=1;fontFamily=Helvetica;fontSize=20;fontColor=default;startArrow=none;startFill=0;endArrow=none;endFill=0;" edge="1" parent="1" source="SVV8ROkvWkPMd5T7xQUD-50" target="SVV8ROkvWkPMd5T7xQUD-51">
          <mxGeometry relative="1" as="geometry" />
        </mxCell>
        <mxCell id="SVV8ROkvWkPMd5T7xQUD-50" value="$$\lambda &lt;br&gt;z$$" style="text;html=1;strokeColor=none;fillColor=none;align=center;verticalAlign=middle;whiteSpace=wrap;rounded=0;fontSize=20;" vertex="1" parent="1">
          <mxGeometry x="660" y="800" width="40" height="40" as="geometry" />
        </mxCell>
        <mxCell id="SVV8ROkvWkPMd5T7xQUD-56" style="edgeStyle=orthogonalEdgeStyle;shape=connector;curved=1;rounded=0;orthogonalLoop=1;jettySize=auto;html=1;exitX=1;exitY=0.5;exitDx=0;exitDy=0;entryX=1;entryY=0.5;entryDx=0;entryDy=0;dashed=1;labelBackgroundColor=default;strokeColor=default;strokeWidth=1;fontFamily=Helvetica;fontSize=20;fontColor=default;startArrow=none;startFill=0;endArrow=classic;endFill=1;" edge="1" parent="1" source="SVV8ROkvWkPMd5T7xQUD-51" target="SVV8ROkvWkPMd5T7xQUD-50">
          <mxGeometry relative="1" as="geometry" />
        </mxCell>
        <mxCell id="SVV8ROkvWkPMd5T7xQUD-51" value="$$z$$" style="text;html=1;strokeColor=none;fillColor=none;align=center;verticalAlign=middle;whiteSpace=wrap;rounded=0;fontSize=20;" vertex="1" parent="1">
          <mxGeometry x="660" y="880" width="40" height="40" as="geometry" />
        </mxCell>
      </root>
    </mxGraphModel>
  </diagram>
</mxfile>
